<?xml version="1.0" encoding="UTF-8" standalone="no"?>
<svg
   version="1.1"
   width="20"
   height="20"
   viewBox="830 830 1000 1000"
   xmlns="http://www.w3.org/2000/svg">

  <g>    <!-- Falcon main body -->
    <path
      d="m 8098.48,11041.3 c 0,0 328.86,1368.1 3009.12,1305.7 261.9,-6.1 1019.8,-120.6 1862.2,-386.7 -636.8,962.7 -1729.1,1597.7 -2969.7,1597.7 -1965.02,0 -3557.99,-1593 -3557.99,-3558 0,-1965 1592.97,-3558 3557.99,-3558 204.2,0 404.4,17.3 599.2,50.3 -80.6,1174.2 -342.7,3011.6 -1190.05,3412.9 -446.46,211.5 -2005.64,-386.8 -2005.64,-386.8 l -69.22,-463.7 c 0,0 -1069.73,1184.3 764.09,1986.6"
      transform="matrix(0.13333333,0,0,-0.13333333,0,2666.6667)"
      fill="#1E3A8A" />

    <!-- Wing / details -->
    <path d="m 13147,8338.3 c 91.1,172.2 168.5,352.8 230.7,540.3 -399.6,307.7 -863.4,651 -1396.2,1025.2 0,0 578.9,-639.3 1165.5,-1565.5"
      transform="matrix(0.13333333,0,0,-0.13333333,0,2666.6667)"
      fill="#0F2A5F" />

    <path d="m 13557.9,10031.9 c -0.9,103 -6.2,205 -15.7,305.7 -430,200.1 -882.2,388.6 -1331.4,540.5 0,0 589,-335.7 1347.1,-846.2"
      transform="matrix(0.13333333,0,0,-0.13333333,0,2666.6667)"
      fill="#0F2A5F" />

    <path d="m 13475.1,9232.4 c 26.2,119.5 46.5,241.1 60.4,364.7 -416.4,227.4 -855.5,443.1 -1296,621.9 0,0 559.4,-399.6 1235.6,-986.6"
      transform="matrix(0.13333333,0,0,-0.13333333,0,2666.6667)"
      fill="#0F2A5F" />

    <path d="m 13436.5,10925.4 c -33.1,123.3 -72.7,243.8 -118.3,361.4 -319.4,67.3 -647.5,109.4 -964.1,107.1 0,0 462.5,-165.5 1082.4,-468.5"
      transform="matrix(0.13333333,0,0,-0.13333333,0,2666.6667)"
      fill="#0F2A5F" />

    <path d="m 11032,6594 c 269.9,81.7 526.2,194.5 764.8,334.4 -206,625.8 -484.3,1332 -789.6,1718.5 0,0 216.5,-1007.1 24.8,-2052.9"
      transform="matrix(0.13333333,0,0,-0.13333333,0,2666.6667)"
      fill="#0F2A5F" />

    <path d="m 11594.8,9439.8 c 0,0 455.2,-1002.7 590,-2248.2 284.6,221.7 534.6,485.6 740.6,782.5 -421,496.8 -903.3,1042 -1330.6,1465.7"
      transform="matrix(0.13333333,0,0,-0.13333333,0,2666.6667)"
      fill="#0F2A5F" />
  </g>
</svg>
